<svg xmlns="http://www.w3.org/2000/svg" version="1.1" xmlns:xlink="http://www.w3.org/1999/xlink" xmlns:svgjs="http://svgjs.dev/svgjs" width="1500" height="1500" viewBox="0 0 1500 1500"><rect width="1500" height="1500" fill="#ffffff"></rect><g transform="matrix(0.6666666666666666,0,0,0.6666666666666666,249.39393939393938,438.5856950067477)"><svg viewBox="0 0 396 247" data-background-color="#ffffff" preserveAspectRatio="xMidYMid meet" height="935" width="1500" xmlns="http://www.w3.org/2000/svg" xmlns:xlink="http://www.w3.org/1999/xlink"><g id="tight-bounds" transform="matrix(1,0,0,1,0.2400000000000091,-0.09999999999999432)"><svg viewBox="0 0 395.52 247.2" height="247.2" width="395.52"><g><svg></svg></g><g><svg viewBox="0 0 395.52 247.2" height="247.2" width="395.52"><g transform="matrix(1,0,0,1,75.54432,98.48299308270677)"><svg viewBox="0 0 244.43135999999998 50.23401383458646" height="50.23401383458646" width="244.43135999999998"><g><svg viewBox="0 0 244.43135999999998 50.23401383458646" height="50.23401383458646" width="244.43135999999998"><g><svg viewBox="0 0 244.43135999999998 50.23401383458646" height="50.23401383458646" width="244.43135999999998"><g id="textblocktransform"><svg viewBox="0 0 244.43135999999998 50.23401383458646" height="50.23401383458646" width="244.43135999999998" id="textblock"><g><svg viewBox="0 0 244.43135999999998 50.23401383458646" height="50.23401383458646" width="244.43135999999998"><g transform="matrix(1,0,0,1,0,0)"><svg width="244.43135999999998" viewBox="1.95 -32.03 204.55 42.04" height="50.23401383458646" data-palette-color="#111111"><path d="M15.72-28.98Q18.58-28.98 20.58-28 22.58-27.03 23.6-25.26 24.61-23.49 24.61-21.12L24.61-21.12Q24.61-19.26 23.77-17.83 22.92-16.41 21.36-15.5L21.36-15.5Q23.95-14.67 25.33-12.83 26.71-10.99 26.71-8.28L26.71-8.28Q26.71-5.71 25.61-3.86 24.51-2 22.41-1 20.31 0 17.33 0L17.33 0 3.49 0Q2.66 0 2.31-0.38 1.95-0.76 1.95-1.66L1.95-1.66Q1.95-2.56 2.31-2.94 2.66-3.32 3.49-3.32L3.49-3.32 6.47-3.32 6.47-25.66 3.49-25.66Q2.66-25.66 2.31-26.04 1.95-26.42 1.95-27.32L1.95-27.32Q1.95-28.22 2.31-28.6 2.66-28.98 3.49-28.98L3.49-28.98 15.72-28.98ZM10.13-25.66L10.13-16.63 15.19-16.63Q17.99-16.63 19.43-17.8 20.87-18.97 20.87-21.12L20.87-21.12Q20.87-23.36 19.46-24.51 18.04-25.66 15.19-25.66L15.19-25.66 10.13-25.66ZM10.13-13.31L10.13-3.32 16.6-3.32Q19.6-3.32 21.23-4.61 22.85-5.91 22.85-8.28L22.85-8.28Q22.85-13.31 16.72-13.31L16.72-13.31 10.13-13.31ZM45.6-32.03Q46.43-32.03 46.79-31.65 47.14-31.27 47.14-30.37L47.14-30.37 47.14-3.32 54.98-3.32Q55.81-3.32 56.16-2.94 56.52-2.56 56.52-1.66L56.52-1.66Q56.52-0.76 56.16-0.38 55.81 0 54.98 0L54.98 0 35.84 0Q35.01 0 34.65-0.38 34.3-0.76 34.3-1.66L34.3-1.66Q34.3-2.56 34.65-2.94 35.01-3.32 35.84-3.32L35.84-3.32 43.48-3.32 43.48-28.71 36.81-28.71Q35.98-28.71 35.63-29.09 35.28-29.47 35.28-30.37L35.28-30.37Q35.28-31.27 35.63-31.65 35.98-32.03 36.81-32.03L36.81-32.03 45.6-32.03ZM74.95-23.1Q78.29-23.1 80.98-21.58 83.66-20.07 85.19-17.37 86.71-14.67 86.71-11.28L86.71-11.28Q86.71-7.89 85.19-5.19 83.66-2.49 80.98-0.98 78.29 0.54 74.95 0.54L74.95 0.54Q71.6 0.54 68.92-0.98 66.23-2.49 64.7-5.19 63.18-7.89 63.18-11.28L63.18-11.28Q63.18-14.67 64.7-17.37 66.23-20.07 68.92-21.58 71.6-23.1 74.95-23.1L74.95-23.1ZM74.95-19.48Q72.58-19.48 70.78-18.44 68.99-17.41 68.01-15.54 67.04-13.67 67.04-11.28L67.04-11.28Q67.04-8.89 68.01-7.02 68.99-5.15 70.78-4.11 72.58-3.08 74.95-3.08L74.95-3.08Q77.31-3.08 79.11-4.11 80.9-5.15 81.88-7.02 82.86-8.89 82.86-11.28L82.86-11.28Q82.86-13.67 81.88-15.54 80.9-17.41 79.11-18.44 77.31-19.48 74.95-19.48L74.95-19.48ZM103.58-23.1Q105.97-23.1 108-22.02 110.03-20.95 111.56-18.95L111.56-18.95 111.56-20.9Q111.56-21.8 111.92-22.18 112.27-22.56 113.1-22.56L113.1-22.56 116.98-22.56Q117.81-22.56 118.17-22.18 118.52-21.8 118.52-20.9L118.52-20.9Q118.52-20 118.17-19.62 117.81-19.24 116.98-19.24L116.98-19.24 114.98-19.24 114.98 0.73Q114.98 3.64 113.75 5.73 112.52 7.81 110.17 8.91 107.83 10.01 104.53 10.01L104.53 10.01Q102.19 10.01 99.8 9.61 97.4 9.2 95.33 8.45L95.33 8.45Q94.38 8.11 94.38 7.15L94.38 7.15Q94.38 6.76 94.57 6.18L94.57 6.18Q95.01 4.83 95.96 4.83L95.96 4.83Q96.23 4.83 96.5 4.93L96.5 4.93Q98.41 5.62 100.51 6.01 102.6 6.4 104.53 6.4L104.53 6.4Q107.9 6.4 109.61 4.8 111.32 3.2 111.32 0.42L111.32 0.42 111.32-4.49Q108.29-0.68 103.58-0.68L103.58-0.68Q100.55-0.68 98.16-2.04 95.77-3.39 94.4-5.93 93.03-8.47 93.03-11.89L93.03-11.89Q93.03-15.31 94.4-17.85 95.77-20.39 98.16-21.74 100.55-23.1 103.58-23.1L103.58-23.1ZM103.83-19.48Q101.65-19.48 100.09-18.52 98.53-17.55 97.71-15.83 96.89-14.11 96.89-11.89L96.89-11.89Q96.89-9.67 97.71-7.95 98.53-6.23 100.09-5.26 101.65-4.3 103.83-4.3L103.83-4.3Q106-4.3 107.7-5.2 109.39-6.1 110.36-7.82 111.32-9.55 111.32-11.89L111.32-11.89Q111.32-14.23 110.36-15.95 109.39-17.68 107.7-18.58 106-19.48 103.83-19.48L103.83-19.48ZM133.56-23.1Q135.95-23.1 137.98-22.02 140-20.95 141.54-18.95L141.54-18.95 141.54-20.9Q141.54-21.8 141.9-22.18 142.25-22.56 143.08-22.56L143.08-22.56 146.96-22.56Q147.79-22.56 148.15-22.18 148.5-21.8 148.5-20.9L148.5-20.9Q148.5-20 148.15-19.62 147.79-19.24 146.96-19.24L146.96-19.24 144.96-19.24 144.96 0.73Q144.96 3.64 143.73 5.73 142.49 7.81 140.15 8.91 137.81 10.01 134.51 10.01L134.51 10.01Q132.17 10.01 129.78 9.61 127.38 9.2 125.31 8.45L125.31 8.45Q124.36 8.11 124.36 7.15L124.36 7.15Q124.36 6.76 124.55 6.18L124.55 6.18Q124.99 4.83 125.94 4.83L125.94 4.83Q126.21 4.83 126.48 4.93L126.48 4.93Q128.38 5.62 130.48 6.01 132.58 6.4 134.51 6.4L134.51 6.4Q137.88 6.4 139.59 4.8 141.3 3.2 141.3 0.42L141.3 0.42 141.3-4.49Q138.27-0.68 133.56-0.68L133.56-0.68Q130.53-0.68 128.14-2.04 125.75-3.39 124.38-5.93 123.01-8.47 123.01-11.89L123.01-11.89Q123.01-15.31 124.38-17.85 125.75-20.39 128.14-21.74 130.53-23.1 133.56-23.1L133.56-23.1ZM133.8-19.48Q131.63-19.48 130.07-18.52 128.51-17.55 127.69-15.83 126.87-14.11 126.87-11.89L126.87-11.89Q126.87-9.67 127.69-7.95 128.51-6.23 130.07-5.26 131.63-4.3 133.8-4.3L133.8-4.3Q135.98-4.3 137.67-5.2 139.37-6.1 140.33-7.82 141.3-9.55 141.3-11.89L141.3-11.89Q141.3-14.23 140.33-15.95 139.37-17.68 137.67-18.58 135.98-19.48 133.8-19.48L133.8-19.48ZM165.51-32.03Q166.34-32.03 166.7-31.65 167.05-31.27 167.05-30.37L167.05-30.37 167.05-3.32 174.89-3.32Q175.72-3.32 176.07-2.94 176.43-2.56 176.43-1.66L176.43-1.66Q176.43-0.76 176.07-0.38 175.72 0 174.89 0L174.89 0 155.75 0Q154.92 0 154.57-0.38 154.21-0.76 154.21-1.66L154.21-1.66Q154.21-2.56 154.57-2.94 154.92-3.32 155.75-3.32L155.75-3.32 163.39-3.32 163.39-28.71 156.73-28.71Q155.9-28.71 155.54-29.09 155.19-29.47 155.19-30.37L155.19-30.37Q155.19-31.27 155.54-31.65 155.9-32.03 156.73-32.03L156.73-32.03 165.51-32.03ZM195.08-23.1Q198.62-23.1 201.12-21.67 203.62-20.24 204.97-17.71 206.31-15.19 206.5-11.89L206.5-11.89Q206.5-11.06 206.15-10.72 205.8-10.38 204.97-10.38L204.97-10.38 187.29-10.38Q187.46-6.74 189.45-4.87 191.44-3 195.08-3L195.08-3Q197.32-3 199.52-3.58 201.72-4.15 203.38-5.1L203.38-5.1Q203.79-5.32 204.14-5.32L204.14-5.32Q204.99-5.32 205.53-4.03L205.53-4.03Q205.75-3.52 205.75-3.1L205.75-3.1Q205.75-2.12 204.67-1.59L204.67-1.59Q202.79-0.63 200.23-0.05 197.67 0.54 195.08 0.54L195.08 0.54Q191.39 0.54 188.78-0.88 186.17-2.29 184.8-4.96 183.43-7.62 183.43-11.28L183.43-11.28Q183.43-14.77 184.92-17.46 186.41-20.14 189.05-21.62 191.68-23.1 195.08-23.1L195.08-23.1ZM195.08-19.56Q192.07-19.56 190.11-18.03 188.14-16.5 187.53-13.79L187.53-13.79 202.45-13.79Q201.94-16.6 200.09-18.08 198.25-19.56 195.08-19.56L195.08-19.56Z" opacity="1" transform="matrix(1,0,0,1,0,0)" fill="#111111" class="wordmark-text-0" data-fill-palette-color="primary" id="text-0"></path></svg></g></svg></g></svg></g></svg></g></svg></g></svg></g><g><path d="M0 123.6c0-68.262 55.338-123.6 123.6-123.6 57.54 0 105.896 39.318 119.668 92.553l-2.341 0c-13.716-51.971-61.046-90.288-117.327-90.288-67.011 0-121.335 54.324-121.335 121.335 0 67.011 54.324 121.335 121.335 121.335 56.28 0 103.611-38.318 117.327-90.288h2.341c-13.772 53.235-62.128 92.553-119.668 92.553-68.262 0-123.6-55.338-123.6-123.6z" fill="#636365" stroke="transparent" data-fill-palette-color="tertiary"></path></g></svg></g><defs></defs></svg><rect width="395.52" height="247.2" fill="none" stroke="none" visibility="hidden"></rect></g></svg></g></svg>